# xmcd
#
# Track frame offsets:
#	150
#	3665
#	14615
#	29700
#	37335
#	48487
#	61325
#	72530
#	82110
#	97735
#	113817
#	125365
#	135740
#	146680
#	158660
#	175385
#	186635
#	196980
#	213670
#	231547
#	242557
#	258237
#	270590
#	287067
#	305072
#	319135
#
# Disc length: 4476 seconds
#
# Revision: 1
# Processed by: cddbd v1.5.1PL2 Copyright (c) Steve Scherf et al.
# Submitted via: audiograbber 1.83.01
#
DISCID=97117a1a
DTITLE=versch - Gute Wahl - Mix One Rock Control
DYEAR=1997
DGENRE=Pop
TTITLE0=Intro
TTITLE1=Number Nine - New York Groove
TTITLE2=Mears, Pat - Oh Darlin'
TTITLE3=Backbone Slide - Rosi Lust
TTITLE4=F.R.O. plays Toto - Hold the line
TTITLE5=Kimball, Bobby - Woodstock
TTITLE6=Tuff - Tied to the bells
TTITLE7=Tuff - Sixteen tones
TTITLE8=Million - Never again
TTITLE9=Mears, Pat - I try and try
TTITLE10=Backbone Slide - Colours bleed
TTITLE11=Number Nine - The great song of indifference
TTITLE12=Kimball, Bobby - Lay down your arms
TTITLE13=Tatoo Rodeo - Train
TTITLE14=Backbone Slide - That's what dreams are for
TTITLE15=Kimball, Bobby - Shot down love
TTITLE16=Million - Follow the trends
TTITLE17=F.R.O. plays Moody Blues - Your wildest dreams
TTITLE18=Tuff - I like what I see
TTITLE19=Tatoo Rodeo - Can't keep my woman down
TTITLE20=Backbone Slide - House of thunder
TTITLE21=Million - Burn in hell
TTITLE22=Kimball, Bobby - Rise up
TTITLE23=F.R.O. plays Toto - Africa
TTITLE24=Fatzo - Freibier
TTITLE25=Fatzo - Sport ist Mord
EXTD=
EXTT0=
EXTT1=
EXTT2=
EXTT3=
EXTT4=
EXTT5=
EXTT6=
EXTT7=
EXTT8=
EXTT9=
EXTT10=
EXTT11=
EXTT12=
EXTT13=
EXTT14=
EXTT15=
EXTT16=
EXTT17=
EXTT18=
EXTT19=
EXTT20=
EXTT21=
EXTT22=
EXTT23=
EXTT24=
EXTT25=
PLAYORDER=
